<svg width="183" height="24" viewBox="0 0 183 24" fill="none" xmlns="http://www.w3.org/2000/svg">
<g id="Logo">
<path d="M37.3226 11.8148C37.3226 11.4141 37.2448 11.0172 37.0939 10.647C36.9428 10.2769 36.7215 9.94059 36.4428 9.65748C36.1638 9.37436 35.8326 9.14997 35.4683 8.99702C35.1041 8.84428 34.7139 8.76606 34.3197 8.76688H29.0741C28.2793 8.76688 27.517 9.08798 26.9552 9.65975C26.3931 10.2313 26.0774 11.0065 26.0774 11.8148C26.0792 12.6227 26.3954 13.3969 26.957 13.9682C27.5187 14.5394 28.2799 14.8611 29.0741 14.8627H34.3197C35.115 14.8627 35.8778 14.5419 36.4409 13.9705C37.0038 13.3989 37.321 12.6237 37.3226 11.8148ZM44.8173 4.19189V19.4377H40.3191V16.3771C39.622 17.3266 38.7167 18.0975 37.6751 18.6288C36.6337 19.16 35.4849 19.4371 34.3197 19.4377H29.0741C27.0863 19.4377 25.1801 18.6346 23.7745 17.2051C22.3689 15.7755 21.5794 13.8366 21.5794 11.8148C21.5794 9.79318 22.3689 7.8541 23.7745 6.42457C25.1801 4.99504 27.0863 4.19189 29.0741 4.19189H34.3197C35.4851 4.19107 36.6345 4.46741 37.6761 4.99894C38.7179 5.53026 39.623 6.302 40.3191 7.25255V4.19189H44.8173Z" fill="black"/>
<path d="M82.3659 11.8148C82.3659 11.4141 82.2883 11.0172 82.1372 10.647C81.9864 10.2769 81.765 9.94059 81.4861 9.65748C81.2071 9.37436 80.8762 9.14997 80.5118 8.99702C80.1474 8.84428 79.7572 8.76606 79.3632 8.76688H74.1174C73.3228 8.76688 72.5605 9.08798 71.9985 9.65975C71.4366 10.2313 71.1209 11.0065 71.1209 11.8148C71.1225 12.6227 71.4387 13.3969 72.0003 13.9682C72.562 14.5394 73.3232 14.8611 74.1174 14.8627H79.3632C80.1585 14.8627 80.9213 14.5419 81.4842 13.9705C82.0473 13.3989 82.3643 12.6237 82.3659 11.8148ZM89.8606 4.19189V19.4377H85.3626V16.3771C84.6653 17.3266 83.76 18.0975 82.7186 18.6288C81.6772 19.16 80.5282 19.4371 79.3632 19.4377H74.1174C72.1299 19.4377 70.2234 18.6346 68.818 17.2051C67.4124 15.7755 66.6227 13.8366 66.6227 11.8148C66.6227 9.79318 67.4124 7.8541 68.818 6.42457C70.2234 4.99504 72.1299 4.19189 74.1174 4.19189H79.3632C80.5284 4.19107 81.6778 4.46741 82.7196 4.99894C83.7612 5.53026 84.6663 6.302 85.3626 7.25255V4.19189H89.8606Z" fill="black"/>
<path d="M117.106 4.19189V19.4377H112.608V8.76052H107.363V19.4377H102.866V8.76052H97.6193V19.4377H93.1211V4.19189H117.106Z" fill="black"/>
<path d="M142.261 0V19.4375H160.253V14.8625H146.759V8.7603H160.253V4.19168H146.759V0H142.261Z" fill="black"/>
<path d="M171.675 4.19189L168.012 14.6199V4.19189H163.512V19.4377H171.096L174.84 8.76052H183V4.19189H171.675Z" fill="black"/>
<path d="M56.2321 4.19189L52.5758 14.6199V4.19189H48.0778V19.4377H55.654L59.4045 8.76052H66.0009V4.19189H56.2321Z" fill="black"/>
<path d="M134.867 10.3325H124.619C124.619 9.05451 126.223 8.38358 127.214 8.38358H134.867V10.3325ZM127.007 4.19189C125.02 4.19189 123.113 4.99504 121.709 6.42457C120.302 7.8541 119.512 9.79318 119.512 11.8148C119.512 13.8366 120.302 15.7755 121.709 17.2051C123.113 18.6346 125.02 19.4377 127.007 19.4377H139V15.6359H127.22C126.223 15.6359 124.619 14.933 124.619 13.6806H139V4.19189H127.007Z" fill="black"/>
<path d="M12.1183 4.19189H0V24H4.60492V19.4377H12.1436C14.1313 19.4377 16.0376 18.6346 17.4429 17.2051C18.8485 15.7755 19.6382 13.8366 19.6382 11.8148C19.6382 9.79318 18.8485 7.8541 17.4429 6.42457C16.0376 4.99504 14.1313 4.19189 12.1436 4.19189M12.1436 14.8627H4.60492V8.76688H12.1436C12.9382 8.76688 13.7004 9.08798 14.2625 9.65975C14.8243 10.2313 15.1401 11.0065 15.1401 11.8148C15.1384 12.6227 14.8223 13.3969 14.2606 13.9682C13.699 14.5394 12.9378 14.8611 12.1436 14.8627Z" fill="black"/>
</g>
</svg>
